<?xml version="1.0" encoding="UTF-8" standalone="no"?>
<!DOCTYPE svg PUBLIC "-//W3C//DTD SVG 1.1//EN" "http://www.w3.org/Graphics/SVG/1.1/DTD/svg11.dtd">
<svg version="1.1" xmlns="http://www.w3.org/2000/svg" xmlns:xlink="http://www.w3.org/1999/xlink" preserveAspectRatio="xMidYMid meet" viewBox="0 0 152 152" width="152" height="152"><defs><path d="M144.85 0.03L145.16 0.06L145.47 0.1L145.78 0.16L146.08 0.23L146.38 0.31L146.67 0.4L146.96 0.5L147.24 0.61L147.52 0.74L147.79 0.87L148.05 1.01L148.31 1.17L148.56 1.33L148.81 1.5L149.05 1.69L149.28 1.88L149.5 2.08L149.72 2.28L149.92 2.5L150.12 2.72L150.31 2.95L150.5 3.19L150.67 3.44L150.83 3.69L150.99 3.95L151.13 4.21L151.26 4.48L151.39 4.76L151.5 5.04L151.6 5.33L151.69 5.62L151.77 5.92L151.84 6.22L151.9 6.53L151.94 6.84L151.97 7.15L151.99 7.47L152 7.79L152 144.21L151.99 144.53L151.97 144.85L151.94 145.16L151.9 145.47L151.84 145.78L151.77 146.08L151.69 146.38L151.6 146.67L151.5 146.96L151.39 147.24L151.26 147.52L151.13 147.79L150.99 148.05L150.83 148.31L150.67 148.56L150.5 148.81L150.31 149.05L150.12 149.28L149.92 149.5L149.72 149.72L149.5 149.92L149.28 150.12L149.05 150.31L148.81 150.5L148.56 150.67L148.31 150.83L148.05 150.99L147.79 151.13L147.52 151.26L147.24 151.39L146.96 151.5L146.67 151.6L146.38 151.69L146.08 151.77L145.78 151.84L145.47 151.9L145.16 151.94L144.85 151.97L144.53 151.99L144.21 152L7.79 152L7.47 151.99L7.15 151.97L6.84 151.94L6.53 151.9L6.22 151.84L5.92 151.77L5.62 151.69L5.33 151.6L5.04 151.5L4.76 151.39L4.48 151.26L4.21 151.13L3.95 150.99L3.69 150.83L3.44 150.67L3.19 150.5L2.95 150.31L2.72 150.12L2.5 149.92L2.28 149.72L2.08 149.5L1.88 149.28L1.69 149.05L1.5 148.81L1.33 148.56L1.17 148.31L1.01 148.05L0.87 147.79L0.74 147.52L0.61 147.24L0.5 146.96L0.4 146.67L0.31 146.38L0.23 146.08L0.16 145.78L0.1 145.47L0.06 145.16L0.03 144.85L0.01 144.53L0 144.21L0 7.79L0.01 7.47L0.03 7.15L0.06 6.84L0.1 6.53L0.16 6.22L0.23 5.92L0.31 5.62L0.4 5.33L0.5 5.04L0.61 4.76L0.74 4.48L0.87 4.21L1.01 3.95L1.17 3.69L1.33 3.44L1.5 3.19L1.69 2.95L1.88 2.72L2.08 2.5L2.28 2.28L2.5 2.08L2.72 1.88L2.95 1.69L3.19 1.5L3.44 1.33L3.69 1.17L3.95 1.01L4.21 0.87L4.48 0.74L4.76 0.61L5.04 0.5L5.33 0.4L5.62 0.31L5.92 0.23L6.22 0.16L6.53 0.1L6.84 0.06L7.15 0.03L7.47 0.01L7.79 0L144.21 0L144.53 0.01L144.85 0.03ZM102 20.92L101.85 21.02L101.7 21.13L101.56 21.25L101.42 21.37L101.29 21.5L101.16 21.63L101.03 21.77L100.91 21.91L100.79 22.07L100.68 22.22L100.58 22.38L100.48 22.55L100.38 22.72L100.29 22.89L100.21 23.07L100.13 23.25L100.06 23.44L99.99 23.63L99.99 23.63L99.93 23.82L99.88 24.02L99.83 24.22L99.79 24.42L99.76 24.63L99.74 24.84L99.72 25.05L99.71 25.26L99.71 25.26L99.7 25.48L99.7 131.15L99.71 131.37L99.72 131.58L99.74 131.79L99.76 132L99.79 132.21L99.83 132.41L99.88 132.61L99.93 132.81L99.99 133L100.06 133.19L100.13 133.38L100.21 133.56L100.21 133.57L100.29 133.74L100.38 133.91L100.39 133.92L100.48 134.08L100.58 134.25L100.68 134.41L100.8 134.56L100.91 134.71L101.03 134.86L101.16 135L101.29 135.13L101.42 135.26L101.56 135.38L101.7 135.5L101.85 135.61L102 135.71L102.16 135.81L102.31 135.9L102.48 135.98L102.64 136.06L102.81 136.13L102.98 136.19L103.15 136.25L103.33 136.29L103.51 136.33L103.69 136.36L103.87 136.38L104.05 136.39L104.24 136.4L129.97 136.4L130.16 136.39L130.34 136.38L130.52 136.36L130.71 136.33L130.88 136.29L131.06 136.25L131.23 136.19L131.4 136.13L131.48 136.1L131.57 136.06L131.74 135.98L131.9 135.9L132.05 135.81L132.21 135.71L132.36 135.61L132.51 135.5L132.65 135.38L132.79 135.26L132.92 135.13L132.92 135.13L133.05 135L133.18 134.86L133.29 134.73L133.3 134.71L133.42 134.56L133.53 134.41L133.63 134.25L133.73 134.08L133.83 133.91L133.92 133.74L134 133.56L134.08 133.38L134.15 133.19L134.22 133L134.28 132.81L134.33 132.61L134.38 132.41L134.42 132.21L134.45 132L134.48 131.79L134.49 131.58L134.51 131.37L134.51 131.15L134.51 25.48L134.51 25.26L134.49 25.05L134.48 24.84L134.45 24.63L134.42 24.42L134.38 24.22L134.33 24.02L134.28 23.82L134.22 23.63L134.15 23.44L134.08 23.25L134 23.07L133.92 22.89L133.83 22.72L133.73 22.55L133.63 22.38L133.53 22.22L133.42 22.07L133.3 21.91L133.18 21.77L133.05 21.63L132.92 21.5L132.79 21.37L132.79 21.37L132.65 21.25L132.51 21.13L132.36 21.02L132.21 20.92L132.05 20.82L131.9 20.73L131.74 20.64L131.57 20.57L131.4 20.5L131.23 20.44L131.06 20.38L130.88 20.34L130.71 20.3L130.52 20.27L130.34 20.25L130.16 20.24L129.97 20.23L104.24 20.23L104.05 20.24L103.87 20.25L103.69 20.27L103.5 20.3L103.33 20.34L103.15 20.38L102.98 20.44L102.81 20.5L102.64 20.57L102.47 20.64L102.31 20.73L102.15 20.82L102 20.92L102 20.92ZM62.62 59.03L62.44 59.04L62.25 59.06L62.07 59.09L61.89 59.12L61.72 59.16L61.54 59.2L61.37 59.25L61.21 59.31L61.04 59.37L60.88 59.44L60.72 59.52L60.57 59.6L60.42 59.69L60.27 59.78L60.13 59.87L59.99 59.98L59.86 60.08L59.73 60.19L59.6 60.31L59.48 60.43L59.36 60.56L59.25 60.69L59.15 60.82L59.05 60.96L58.95 61.1L58.86 61.24L58.78 61.39L58.7 61.54L58.63 61.7L58.56 61.86L58.5 62.02L58.45 62.18L58.41 62.35L58.37 62.52L58.33 62.69L58.31 62.86L58.29 63.04L58.28 63.22L58.28 63.22L58.27 63.4L58.27 132.03L58.28 132.21L58.29 132.39L58.31 132.56L58.33 132.74L58.37 132.91L58.41 133.08L58.45 133.24L58.5 133.41L58.56 133.57L58.63 133.73L58.7 133.88L58.78 134.03L58.86 134.18L58.95 134.33L59.05 134.47L59.15 134.61L59.25 134.74L59.36 134.87L59.48 135L59.6 135.12L59.73 135.23L59.86 135.34L59.99 135.45L60.13 135.55L60.27 135.65L60.42 135.74L60.57 135.83L60.72 135.91L60.88 135.98L61.04 136.05L61.21 136.12L61.37 136.17L61.54 136.23L61.72 136.27L61.89 136.31L62.07 136.34L62.25 136.37L62.44 136.38L62.62 136.39L62.81 136.4L88.54 136.4L88.72 136.39L88.91 136.38L89.09 136.37L89.27 136.34L89.27 136.34L89.45 136.31L89.63 136.27L89.8 136.23L89.97 136.17L90.14 136.12L90.3 136.05L90.46 135.98L90.62 135.91L90.77 135.83L90.93 135.74L91.07 135.65L91.22 135.55L91.35 135.45L91.49 135.34L91.62 135.23L91.74 135.12L91.87 135L91.98 134.87L92.09 134.74L92.1 134.73L92.2 134.61L92.3 134.47L92.39 134.33L92.48 134.18L92.57 134.03L92.65 133.88L92.72 133.73L92.78 133.57L92.78 133.57L92.84 133.41L92.9 133.24L92.94 133.08L92.98 132.91L93.02 132.74L93.04 132.56L93.06 132.39L93.07 132.21L93.08 132.03L93.08 63.4L93.07 63.22L93.06 63.04L93.04 62.86L93.02 62.69L92.98 62.52L92.94 62.35L92.9 62.18L92.84 62.02L92.78 61.86L92.72 61.7L92.65 61.54L92.57 61.39L92.48 61.24L92.39 61.1L92.3 60.96L92.2 60.82L92.09 60.69L91.98 60.56L91.87 60.43L91.74 60.31L91.62 60.19L91.49 60.08L91.35 59.98L91.22 59.87L91.07 59.78L90.93 59.69L90.77 59.6L90.62 59.52L90.46 59.44L90.3 59.37L90.14 59.31L89.97 59.25L89.8 59.2L89.63 59.16L89.45 59.12L89.27 59.09L89.09 59.06L88.91 59.04L88.72 59.03L88.54 59.03L62.81 59.03L62.62 59.03ZM21.78 91.36L21.54 91.38L21.29 91.4L21.06 91.44L20.82 91.48L20.6 91.53L20.37 91.59L20.16 91.66L19.95 91.74L19.74 91.82L19.54 91.91L19.35 92.01L19.17 92.12L18.99 92.23L18.82 92.35L18.66 92.48L18.51 92.61L18.37 92.74L18.23 92.89L18.11 93.03L18 93.19L18 93.19L17.89 93.34L17.8 93.5L17.72 93.67L17.65 93.84L17.6 94.01L17.55 94.19L17.52 94.37L17.5 94.55L17.49 94.74L17.49 133.02L17.5 133.21L17.52 133.39L17.55 133.57L17.6 133.75L17.65 133.92L17.72 134.09L17.8 134.25L17.89 134.42L18 134.57L18.11 134.73L18.23 134.87L18.37 135.02L18.51 135.15L18.66 135.28L18.82 135.41L18.99 135.53L19.17 135.64L19.35 135.75L19.54 135.85L19.74 135.94L19.95 136.02L20.16 136.1L20.37 136.17L20.6 136.23L20.82 136.28L21.06 136.32L21.29 136.35L21.54 136.38L21.78 136.39L22.03 136.4L47.76 136.4L48.01 136.39L48.25 136.38L48.25 136.38L48.49 136.35L48.73 136.32L48.96 136.28L49.19 136.23L49.41 136.17L49.63 136.1L49.84 136.02L50.05 135.94L50.25 135.85L50.44 135.75L50.62 135.64L50.8 135.53L50.97 135.41L51.13 135.28L51.28 135.15L51.42 135.02L51.55 134.87L51.68 134.73L51.79 134.57L51.89 134.42L51.99 134.25L51.99 134.25L52.07 134.09L52.14 133.92L52.19 133.75L52.24 133.57L52.27 133.39L52.29 133.21L52.3 133.02L52.3 94.74L52.29 94.55L52.27 94.37L52.24 94.19L52.19 94.01L52.14 93.84L52.07 93.67L51.99 93.5L51.89 93.34L51.79 93.19L51.68 93.03L51.55 92.89L51.42 92.74L51.28 92.61L51.13 92.48L50.97 92.35L50.8 92.23L50.62 92.12L50.44 92.01L50.25 91.91L50.05 91.82L49.84 91.74L49.63 91.66L49.41 91.59L49.19 91.53L48.96 91.48L48.73 91.44L48.49 91.4L48.25 91.38L48.01 91.36L47.76 91.36L22.03 91.36L21.78 91.36Z" id="a3Y1OmvmY"></path></defs><g><g><g><use xlink:href="#a3Y1OmvmY" opacity="1" fill="#24292e" fill-opacity="1"></use></g></g></g></svg>