<?xml version="1.0" encoding="UTF-8" standalone="no"?>
<!DOCTYPE svg PUBLIC "-//W3C//DTD SVG 1.1//EN" "http://www.w3.org/Graphics/SVG/1.1/DTD/svg11.dtd">
<svg version="1.1" xmlns="http://www.w3.org/2000/svg" xmlns:xlink="http://www.w3.org/1999/xlink" preserveAspectRatio="xMidYMid meet" viewBox="0 0 250 250" width="250" height="250"><defs><path d="M44.65 220.83C40.69 220.83 37.47 218.44 37.47 215.49C37.47 209.43 37.47 161 37.47 154.94C37.47 152 40.69 149.6 44.65 149.6C48.72 149.6 81.27 149.6 85.34 149.6C89.3 149.6 92.52 152 92.52 154.94C92.52 161 92.52 209.43 92.52 215.49C92.52 218.44 89.3 220.83 85.34 220.83C77.2 220.83 48.72 220.83 44.65 220.83Z" id="bIk9T6ZwZ"></path><path d="M109.14 220.83C105.18 220.83 101.97 217.73 101.97 213.92C101.97 203.06 101.97 116.24 101.97 105.38C101.97 101.57 105.18 98.47 109.14 98.47C113.21 98.47 145.76 98.47 149.83 98.47C153.79 98.47 157.01 101.57 157.01 105.38C157.01 116.24 157.01 203.06 157.01 213.92C157.01 217.73 153.79 220.83 149.83 220.83C141.69 220.83 113.21 220.83 109.14 220.83Z" id="a1OUNv02K"></path><path d="M174.67 220.83C170.71 220.83 167.49 217.11 167.49 212.53C167.49 195.82 167.49 62.12 167.49 45.41C167.49 40.83 170.7 37.11 174.67 37.11C178.74 37.11 211.29 37.11 215.36 37.11C219.32 37.11 222.54 40.83 222.54 45.41C222.54 62.12 222.54 195.82 222.54 212.53C222.54 217.11 219.32 220.83 215.36 220.83C207.22 220.83 178.74 220.83 174.67 220.83Z" id="b2gyLMj63y"></path></defs><g><g><g><use xlink:href="#bIk9T6ZwZ" opacity="1" fill="#ffffff" fill-opacity="1"></use><g><use xlink:href="#bIk9T6ZwZ" opacity="1" fill-opacity="0" stroke="#000000" stroke-width="1" stroke-opacity="0"></use></g></g><g><use xlink:href="#a1OUNv02K" opacity="1" fill="#ffffff" fill-opacity="1"></use><g><use xlink:href="#a1OUNv02K" opacity="1" fill-opacity="0" stroke="#000000" stroke-width="1" stroke-opacity="0"></use></g></g><g><use xlink:href="#b2gyLMj63y" opacity="1" fill="#ffffff" fill-opacity="1"></use><g><use xlink:href="#b2gyLMj63y" opacity="1" fill-opacity="0" stroke="#000000" stroke-width="1" stroke-opacity="0"></use></g></g></g></g></svg>