<?xml version="1.0" encoding="UTF-8" standalone="no"?>
<!DOCTYPE svg PUBLIC "-//W3C//DTD SVG 1.1//EN" "http://www.w3.org/Graphics/SVG/1.1/DTD/svg11.dtd">
<svg version="1.1" xmlns="http://www.w3.org/2000/svg" xmlns:xlink="http://www.w3.org/1999/xlink" preserveAspectRatio="xMidYMid meet" viewBox="0 0 400 400" width="400" height="400"><defs><path d="M375.05 0C388.83 0 400 11.17 400 24.95C400 99.96 400 300.04 400 375.05C400 388.83 388.83 400 375.05 400C300.04 400 99.96 400 24.95 400C11.17 400 0 388.83 0 375.05C0 300.04 0 99.96 0 24.95C0 11.17 11.17 0 24.95 0C99.96 0 300.04 0 375.05 0Z" id="a1tjMgM1GK"></path><path d="M44.03 355.2C44.03 344.69 44.03 260.7 44.03 250.19C44.03 245.09 49.62 240.93 56.49 240.93C63.54 240.93 119.99 240.93 127.05 240.93C133.92 240.93 139.5 245.09 139.5 250.19C139.5 260.7 139.5 344.69 139.5 355.2C139.5 360.31 133.92 364.46 127.05 364.46C112.94 364.46 63.54 364.46 56.49 364.46C49.62 364.46 44.03 360.31 44.03 355.2Z" id="bMnv918mN"></path><path d="M44.03 355.2C44.03 344.69 44.03 260.7 44.03 250.19C44.03 245.09 49.62 240.93 56.49 240.93C63.54 240.93 119.99 240.93 127.05 240.93C133.92 240.93 139.5 245.09 139.5 250.19C139.5 260.7 139.5 344.69 139.5 355.2C139.5 360.31 133.92 364.46 127.05 364.46C112.94 364.46 63.54 364.46 56.49 364.46C49.62 364.46 44.03 360.31 44.03 355.2Z" id="k4zyp4wC96"></path><path d="M155.89 352.48C155.89 333.64 155.89 183.07 155.89 164.24C155.89 157.63 161.46 152.26 168.33 152.26C175.39 152.26 231.84 152.26 238.89 152.26C245.76 152.26 251.35 157.63 251.35 164.24C251.35 183.07 251.35 333.64 251.35 352.48C251.35 359.08 245.76 364.46 238.89 364.46C224.78 364.46 175.39 364.46 168.33 364.46C161.46 364.46 155.89 359.08 155.89 352.48Z" id="b4NTMxghon"></path><path d="M269.52 350.07C269.52 321.09 269.52 89.22 269.52 60.24C269.52 52.29 275.09 45.84 281.97 45.84C289.03 45.84 345.48 45.84 352.54 45.84C359.41 45.84 364.99 52.29 364.99 60.24C364.99 89.22 364.99 321.09 364.99 350.07C364.99 358.01 359.41 364.46 352.54 364.46C338.42 364.46 289.03 364.46 281.97 364.46C275.11 364.46 269.52 358.01 269.52 350.07Z" id="b2FBRo2CA"></path><path d="M269.52 350.07C269.52 321.09 269.52 89.22 269.52 60.24C269.52 52.29 275.09 45.84 281.97 45.84C289.03 45.84 345.48 45.84 352.54 45.84C359.41 45.84 364.99 52.29 364.99 60.24C364.99 89.22 364.99 321.09 364.99 350.07C364.99 358.01 359.41 364.46 352.54 364.46C338.42 364.46 289.03 364.46 281.97 364.46C275.11 364.46 269.52 358.01 269.52 350.07Z" id="bGOOG7cCy"></path><path d="M155.89 352.48C155.89 333.64 155.89 183.07 155.89 164.24C155.89 157.63 161.46 152.26 168.33 152.26C175.39 152.26 231.84 152.26 238.89 152.26C245.76 152.26 251.35 157.63 251.35 164.24C251.35 183.07 251.35 333.64 251.35 352.48C251.35 359.08 245.76 364.46 238.89 364.46C224.78 364.46 175.39 364.46 168.33 364.46C161.46 364.46 155.89 359.08 155.89 352.48Z" id="a3y6MmcGH"></path></defs><g><g><g><use xlink:href="#a1tjMgM1GK" opacity="1" fill="#24292e" fill-opacity="1"></use></g><g><use xlink:href="#bMnv918mN" opacity="1" fill="#ffffff" fill-opacity="1"></use><g><use xlink:href="#bMnv918mN" opacity="1" fill-opacity="0" stroke="#000000" stroke-width="1" stroke-opacity="0"></use></g></g><g><use xlink:href="#k4zyp4wC96" opacity="1" fill="#ffffff" fill-opacity="1"></use><g><use xlink:href="#k4zyp4wC96" opacity="1" fill-opacity="0" stroke="#000000" stroke-width="1" stroke-opacity="0"></use></g></g><g><use xlink:href="#b4NTMxghon" opacity="1" fill="#ffffff" fill-opacity="1"></use><g><use xlink:href="#b4NTMxghon" opacity="1" fill-opacity="0" stroke="#000000" stroke-width="1" stroke-opacity="0"></use></g></g><g><use xlink:href="#b2FBRo2CA" opacity="1" fill="#ffffff" fill-opacity="1"></use><g><use xlink:href="#b2FBRo2CA" opacity="1" fill-opacity="0" stroke="#000000" stroke-width="1" stroke-opacity="0"></use></g></g><g><use xlink:href="#bGOOG7cCy" opacity="1" fill="#ffffff" fill-opacity="1"></use><g><use xlink:href="#bGOOG7cCy" opacity="1" fill-opacity="0" stroke="#000000" stroke-width="1" stroke-opacity="0"></use></g></g><g><use xlink:href="#a3y6MmcGH" opacity="1" fill="#ffffff" fill-opacity="1"></use><g><use xlink:href="#a3y6MmcGH" opacity="1" fill-opacity="0" stroke="#000000" stroke-width="1" stroke-opacity="0"></use></g></g></g></g></svg>